<svg role="img" viewBox="0 0 32 32" xmlns="http://www.w3.org/2000/svg">
  <title>AlmaLinux</title>
  <g transform="matrix(1.4164608,0,0,1.4164608,-58.265181,-125.67991)">
    <path d="m 60.090531,102.32266 c 0.687917,-0.0529 1.243542,0.39687 1.296459,1.08479 0.05292,0.71437 -0.449792,1.29646 -1.137709,1.34937 -0.661458,0.0529 -1.243541,-0.44979 -1.296458,-1.11125 -0.05292,-0.71437 0.423333,-1.24354 1.137708,-1.32291 z" fill="#86DA2F"/>
    <path d="m 51.729698,107.95828 c 0,-0.68792 0.529167,-1.21708 1.164167,-1.21708 0.635,0 1.243542,0.58208 1.243542,1.24354 0,0.635 -0.529167,1.19062 -1.137709,1.21708 -0.767291,0 -1.27,-0.47625 -1.27,-1.24354 z" fill="#24C2FF"/>
    <path d="m 53.60824,100.23245 c -0.105833,0.0529 -0.15875,-0.0265 -0.185208,-0.10584 -0.978959,-1.825621 -0.687917,-4.127496 1.031875,-5.50333 0.449791,-0.370416 1.296458,-0.449791 1.666875,-0.07937 0.15875,0.132292 0.185208,0.291042 0.211666,0.47625 0.05292,0.396875 0.132292,0.79375 0.396875,1.11125 0.291042,0.343959 0.661459,0.47625 1.084792,0.449792 0.370417,0 0.740833,-0.05292 0.978958,0.370417 0.132292,0.238125 0.07938,1.164166 -0.132292,1.349375 -0.105833,0.07937 -0.185208,0.02646 -0.264583,0 -0.608541,-0.238125 -1.243541,-0.238125 -1.878541,-0.132292 -0.211667,0.02646 -0.3175,-0.02646 -0.3175,-0.264583 -0.02646,-0.396875 -0.105834,-0.767292 -0.3175,-1.11125 -0.396875,-0.714375 -1.137709,-0.740834 -1.613959,-0.07937 -0.396875,0.529166 -0.502708,1.164166 -0.608541,1.799166 -0.105834,0.555625 -0.07938,1.137709 -0.05292,1.719795 0,0 -0.02646,0 0,0 z" fill="#FFCB12"/>
    <path d="m 54.269698,100.62932 c -0.05292,-0.0794 -0.02646,-0.15875 0.05292,-0.21166 1.508125,-1.375838 3.757083,-1.640421 5.503333,-0.29105 0.449792,0.37042 0.740833,1.13771 0.502708,1.5875 -0.105833,0.18521 -0.238125,0.26459 -0.396875,0.3175 -0.370416,0.15875 -0.714375,0.3175 -0.9525,0.66146 -0.238125,0.34396 -0.291041,0.74084 -0.185208,1.16417 0.07938,0.34396 0.211667,0.71437 -0.132292,1.03187 -0.185208,0.18521 -1.084791,0.34396 -1.322916,0.18521 -0.105833,-0.0794 -0.07937,-0.15875 -0.05292,-0.26458 0.07937,-0.66146 -0.07937,-1.27 -0.3175,-1.85208 -0.07937,-0.21167 -0.05292,-0.3175 0.15875,-0.37042 0.370417,-0.10583 0.714375,-0.29104 0.978959,-0.55563 0.582083,-0.55562 0.449791,-1.27 -0.3175,-1.5875 -0.608542,-0.26458 -1.243542,-0.21166 -1.852084,-0.15875 -0.582083,0.0265 -1.137708,0.18521 -1.666875,0.34396 z" fill="#86DA2F"/>
    <path d="m 53.92574,101.31724 c 0.07938,-0.0794 0.132292,-0.0529 0.211667,0 1.74625,1.05833 2.645833,3.14854 1.852083,5.18583 -0.211667,0.52917 -0.899583,1.05834 -1.402292,0.92604 -0.211666,-0.0529 -0.3175,-0.15875 -0.423333,-0.29104 -0.238125,-0.3175 -0.502708,-0.60854 -0.899583,-0.74083 -0.423334,-0.13229 -0.79375,-0.0529 -1.164167,0.15875 -0.3175,0.18521 -0.635,0.42333 -1.031875,0.18521 -0.238125,-0.13229 -0.635,-0.9525 -0.555625,-1.21709 0.05292,-0.10583 0.15875,-0.10583 0.264583,-0.10583 0.661459,-0.10583 1.190625,-0.42333 1.693334,-0.84667 0.15875,-0.13229 0.291041,-0.13229 0.423333,0.0529 0.211667,0.3175 0.47625,0.58208 0.820208,0.76729 0.687917,0.39688 1.349375,0.0529 1.42875,-0.74083 0.07937,-0.66146 -0.15875,-1.24354 -0.370416,-1.82563 -0.238125,-0.52916 -0.529167,-1.03187 -0.846667,-1.50812 z" fill="#24C2FF"/>
    <path d="m 53.079073,101.47599 c -0.105833,0.52917 -0.343958,1.03187 -0.661458,1.48167 -0.9525,1.42875 -2.328333,2.01083 -4.021667,1.85208 -0.608541,-0.0529 -1.11125,-0.55563 -1.164166,-1.05833 -0.02646,-0.21167 0.02646,-0.37042 0.15875,-0.52917 0.185208,-0.23813 0.343958,-0.44979 0.423333,-0.74083 0.15875,-0.58209 -0.05292,-1.05834 -0.47625,-1.48167 -0.582083,-0.58208 -0.502708,-1.111251 0.185208,-1.534585 0.07937,-0.05292 0.185209,-0.105833 0.291042,-0.15875 0.15875,-0.07937 0.291042,-0.07937 0.343958,0.105834 0.238125,0.608541 0.714375,1.058331 1.243542,1.428751 0.185208,0.15875 0.185208,0.26458 0.02646,0.44979 -0.3175,0.34396 -0.502708,0.76729 -0.529166,1.24354 -0.05292,0.58209 0.291041,0.9525 0.873125,0.9525 0.370416,0 0.714375,-0.13229 1.031875,-0.29104 0.820208,-0.42333 1.455208,-1.03187 2.06375,-1.66687 0.07937,-0.0265 0.105833,-0.0794 0.211666,-0.0529 z" fill="#0069DA"/>
    <path d="m 48.739907,95.919739 c 0.05292,0 0.185208,0.02646 0.3175,0.05292 0.978958,0.185209 1.5875,-0.15875 1.905,-1.084791 0.211666,-0.608542 0.661458,-0.79375 1.243541,-0.47625 0.02646,0 0.02646,0.02646 0.05292,0.02646 0.582083,0.343958 0.582083,0.396875 0.185208,0.926042 -0.3175,0.423333 -0.47625,0.899583 -0.555625,1.402291 -0.05292,0.291042 -0.15875,0.343959 -0.423333,0.238125 -0.423333,-0.15875 -0.873125,-0.15875 -1.322917,0 -0.502708,0.15875 -0.714375,0.608542 -0.555625,1.11125 0.211667,0.661459 0.79375,0.9525 1.296459,1.296459 0.502708,0.343958 1.084791,0.529166 1.640416,0.767295 0.07937,0.0265 0.211667,0.0265 0.185209,0.15875 -0.02646,0.0794 -0.132292,0.0794 -0.238125,0.0794 -1.190625,0.0529 -2.328334,-0.1323 -3.254375,-0.92605 -0.873125,-0.714375 -1.508125,-1.5875 -1.402292,-2.804584 0.132292,-0.396875 0.423333,-0.687916 0.926042,-0.767291 z" fill="#FF4649"/>
    <path d="m 46.570323,103.35453 c -0.635,0.0794 -1.27,-0.44979 -1.322916,-1.11125 -0.05292,-0.635 0.47625,-1.27 1.084791,-1.32292 0.687917,-0.0794 1.322917,0.39688 1.375834,1.03188 0.02646,0.60854 -0.370417,1.34937 -1.137709,1.40229 z" fill="#0069DA"/>
    <path d="m 57.682823,93.935364 c 0.661458,-0.05292 1.296458,0.47625 1.349375,1.137708 0.05292,0.635 -0.47625,1.243542 -1.11125,1.296458 -0.687916,0.05292 -1.296458,-0.449791 -1.349375,-1.11125 -0.05292,-0.661458 0.423334,-1.27 1.11125,-1.322916 z" fill="#FFCB12"/>
    <path d="m 50.777198,94.438072 c 0.07937,0.687917 -0.396875,1.27 -1.11125,1.375833 -0.608541,0.07937 -1.243541,-0.423333 -1.322916,-1.005416 -0.07937,-0.767292 0.343958,-1.322917 1.058333,-1.402292 0.661458,-0.07937 1.296458,0.423333 1.375833,1.031875 z" fill="#FF4649"/>
  </g>
</svg>
